<svg width="1080" height="1080" viewBox="0 0 1080 1080" fill="none" xmlns="http://www.w3.org/2000/svg">
<rect width="1080" height="1080" fill="url(#paint0_linear_46_112)"/>
<path d="M660.421 577.409V482.136H752.234V502.453H685.319V518.193H731.546V538.51H685.319V557.093H752.234V577.409H660.421Z" fill="#FBFBFB"/>
<path d="M644.12 509.941C642.421 509.106 640.177 508.162 637.389 507.108C634.601 506.054 631.443 505.065 627.914 504.143C624.385 503.176 620.552 502.386 616.413 501.771C612.274 501.112 608.027 500.783 603.67 500.783C600.185 500.783 597.201 500.892 594.718 501.112C592.278 501.332 590.209 501.617 588.51 501.969C586.854 502.32 585.526 502.737 584.524 503.22C583.565 503.66 582.825 504.121 582.302 504.604C581.779 505.087 581.43 505.57 581.256 506.054C581.126 506.537 581.06 506.976 581.06 507.371C581.06 508.689 581.714 509.853 583.021 510.863C584.328 511.83 586.114 512.708 588.379 513.499C590.644 514.246 593.28 514.97 596.286 515.673C599.292 516.332 602.472 517.035 605.827 517.781C609.225 518.484 612.71 519.275 616.282 520.153C619.898 520.988 623.383 521.976 626.738 523.118C630.136 524.26 633.338 525.6 636.344 527.137C639.35 528.631 641.985 530.388 644.251 532.408C646.516 534.429 648.302 536.757 649.609 539.393C650.916 542.028 651.57 545.037 651.57 548.419C651.57 552.768 650.807 556.501 649.282 559.62C647.758 562.739 645.71 565.374 643.14 567.526C640.613 569.679 637.673 571.414 634.318 572.731C630.964 574.005 627.435 574.994 623.732 575.696C620.072 576.399 616.348 576.86 612.557 577.08C608.811 577.3 605.239 577.409 601.841 577.409C592.953 577.409 584.72 576.663 577.139 575.169C569.603 573.72 562.937 571.897 557.143 569.701V548.09C563.112 551.428 569.908 554.041 577.531 555.93C585.199 557.819 593.389 558.763 602.102 558.763C607.243 558.763 611.425 558.5 614.649 557.973C617.916 557.402 620.464 556.699 622.294 555.864C624.124 554.986 625.365 554.041 626.019 553.031C626.672 552.021 626.999 551.055 626.999 550.132C626.999 548.683 626.346 547.431 625.039 546.377C623.732 545.278 621.946 544.334 619.68 543.543C617.415 542.709 614.779 541.962 611.773 541.303C608.767 540.6 605.565 539.92 602.167 539.261C598.813 538.558 595.349 537.811 591.777 537.021C588.205 536.23 584.72 535.308 581.322 534.253C577.967 533.155 574.787 531.903 571.781 530.498C568.775 529.048 566.139 527.357 563.874 525.424C561.609 523.448 559.822 521.186 558.515 518.638C557.208 516.046 556.555 513.06 556.555 509.677C556.555 505.68 557.252 502.232 558.646 499.333C560.04 496.434 561.914 493.974 564.266 491.954C566.662 489.889 569.407 488.22 572.5 486.946C575.636 485.672 578.925 484.684 582.367 483.981C585.809 483.279 589.294 482.795 592.823 482.532C596.351 482.268 599.706 482.136 602.886 482.136C606.371 482.136 609.944 482.312 613.603 482.664C617.306 483.015 620.944 483.52 624.516 484.179C628.088 484.794 631.53 485.519 634.841 486.353C638.195 487.188 641.288 488.066 644.12 488.989V509.941Z" fill="#FBFBFB"/>
<path d="M522.539 577.409V482.136H546.783V577.409H522.539Z" fill="#FBFBFB"/>
<path d="M431.597 577.409H407.353V482.136H468.126C474.66 482.136 480.193 482.853 484.724 484.286C489.298 485.719 493.001 487.753 495.833 490.388C498.708 493.023 500.777 496.212 502.041 499.957C503.348 503.655 504.001 507.792 504.001 512.369C504.001 516.39 503.456 519.904 502.367 522.908C501.322 525.913 499.884 528.502 498.054 530.674C496.268 532.801 494.177 534.604 491.781 536.083C489.385 537.562 486.858 538.787 484.201 539.758L513.607 577.409H485.246L458.062 542.323H431.597V577.409ZM479.496 512.23C479.496 510.381 479.256 508.809 478.777 507.515C478.341 506.221 477.557 505.18 476.425 504.395C475.292 503.562 473.767 502.962 471.85 502.592C469.977 502.222 467.625 502.037 464.793 502.037H431.597V522.423H464.793C467.625 522.423 469.977 522.238 471.85 521.868C473.767 521.498 475.292 520.921 476.425 520.135C477.557 519.303 478.341 518.239 478.777 516.945C479.256 515.651 479.496 514.079 479.496 512.23Z" fill="#FBFBFB"/>
<path d="M881.223 686.08V590.807H889.391V677.967H955V686.08H881.223Z" fill="#FBFBFB"/>
<path d="M796.371 686.08V590.807H872.173V598.92H805.258V631.718H855.04V639.761H805.258V677.967H872.173V686.08H796.371Z" fill="#FBFBFB"/>
<path d="M741.771 686.08H729.551L684.723 590.807H693.871L735.889 680.117L777.908 590.807H786.991L741.771 686.08Z" fill="#FBFBFB"/>
<path d="M700.447 686.08L688.097 660.979H627.128L614.777 686.08H605.825L652.809 590.807H662.415L709.4 686.08H700.447ZM657.645 599.197L631.114 653.005H684.111L657.645 599.197Z" fill="#FBFBFB"/>
<path d="M514.254 645.308V686.08H506.086V590.807H550.783C557.623 590.807 563.483 591.385 568.362 592.541C573.241 593.65 577.227 595.36 580.32 597.672C583.457 599.937 585.744 602.78 587.182 606.201C588.619 609.621 589.338 613.62 589.338 618.196C589.338 625.315 587.574 631.024 584.045 635.323C580.516 639.576 574.831 642.488 566.99 644.06L597.637 686.08H587.378L558.429 645.031C557.209 645.123 555.968 645.193 554.704 645.239C553.441 645.285 552.134 645.308 550.783 645.308H514.254ZM580.908 618.196C580.908 614.128 580.233 610.846 578.883 608.35C577.532 605.808 575.332 603.843 572.283 602.456C569.233 601.069 565.225 600.145 560.259 599.683C555.336 599.174 549.28 598.92 542.092 598.92H514.254V637.195H541.831C549.019 637.195 555.096 636.987 560.063 636.571C565.029 636.109 569.059 635.208 572.152 633.867C575.245 632.48 577.467 630.562 578.817 628.112C580.211 625.616 580.908 622.311 580.908 618.196Z" fill="#FBFBFB"/>
<path d="M456.298 598.712V686.08H448.195V598.712H407.353V590.807H497.14V598.712H456.298Z" fill="#FBFBFB"/>
<path fill-rule="evenodd" clip-rule="evenodd" d="M138.021 401.659C131.382 401.659 126 407.041 126 413.68V674.7C126 681.339 131.382 686.721 138.021 686.721H170.429V691.92L174.029 696.156C173.801 697.054 173.68 697.995 173.68 698.964C173.68 705.248 178.774 710.342 185.058 710.342C191.342 710.342 196.436 705.248 196.436 698.964C196.436 694.01 193.269 689.795 188.85 688.233V686.721H296.129V691.92L299.729 696.156C299.709 696.235 299.69 696.314 299.671 696.394C299.481 697.22 299.38 698.08 299.38 698.964C299.38 705.248 304.474 710.342 310.758 710.342C317.042 710.342 322.136 705.248 322.136 698.964C322.136 694.01 318.97 689.795 314.551 688.233V686.721H347.012C350.326 686.721 353.34 685.434 355.581 683.334C359.911 679.275 357.676 672.569 354.142 667.802C330.676 636.147 299.858 606.767 263.783 573.049C261.399 570.821 258.991 568.573 256.561 566.304L256.498 566.246L256.495 566.242C247.44 557.789 238.076 549.047 228.432 539.915L205.05 608.966L194.349 597.279L201.336 512.28C200.483 511.371 199.657 510.471 198.841 509.582L198.837 509.578L198.831 509.571L198.761 509.494L198.759 509.493L198.427 509.131L198.226 508.912C165.912 473.619 169.394 465.873 174.175 461.496C178.965 457.109 186.988 454.326 219.299 489.622C220.218 490.622 221.149 491.649 222.089 492.691L308.001 493.225L318.702 504.907L247.361 522.242C267.621 549.351 284.503 570.899 300.423 589.45C335.203 574.435 358.228 540.212 358.228 499.922C358.228 451.122 323.764 410.302 277.115 402.873V393.707H278.487C280.003 393.707 281.232 392.478 281.232 390.962V382.416C281.232 378.753 279.106 375.146 275.37 373.616C264.092 368.996 250.799 368.999 242.555 369L242.312 369L242.114 369L241.673 369C233.429 368.999 220.135 368.996 208.858 373.616C205.122 375.146 202.995 378.753 202.995 382.415V390.961C202.995 392.478 204.224 393.707 205.74 393.707H207.113V401.659H138.021ZM242.114 382.726C234.889 382.726 226.26 382.786 218.649 384.796C217.493 385.101 216.721 386.167 216.721 387.363V390.961C216.721 392.478 215.492 393.707 213.976 393.707H212.603V401.659H265.699L271.624 402.192V393.707H270.252C268.736 393.707 267.507 392.478 267.507 390.962V387.363C267.507 386.168 266.735 385.101 265.579 384.796C257.968 382.786 249.338 382.726 242.114 382.726Z" fill="#FBFBFB"/>
<defs>
<linearGradient id="paint0_linear_46_112" x1="0" y1="0" x2="1080" y2="1080" gradientUnits="userSpaceOnUse">
<stop stop-color="#993281"/>
<stop offset="0.724624" stop-color="#E6055B"/>
<stop offset="1" stop-color="#FF6D32"/>
</linearGradient>
</defs>
</svg>
